<svg width="auto" height="auto" viewBox="-15 -15 126 122" xmlns="http://www.w3.org/2000/svg" xmlns:xlink="http://www.w3.org/1999/xlink"><title>graph-down</title><defs><path id="a" d="M0 .5h95.16V92H0z"/></defs><g fill="none" fill-rule="evenodd"><g transform="translate(0 -.5)"><mask id="b" fill="#fff"><use xlink:href="#a"/></mask><path d="M93.569 88.817H3.183V2.091c0-.955-.636-1.59-1.592-1.59C.637.5 0 1.135 0 2.09v88.317C0 91.363.637 92 1.59 92h91.98c.955 0 1.59-.637 1.59-1.592 0-.954-.635-1.59-1.59-1.59" fill="#d17634" mask="url(#b)"/></g><path d="M23.482 39.75a8.756 8.756 0 0 0-3.922 7.303 8.768 8.768 0 1 0 17.535 0 8.76 8.76 0 0 0-.043-.845l17.105-4.877c.95 3.637 4.247 6.327 8.182 6.327a8.417 8.417 0 0 0 5.593-2.123l11.823 23.133a8.309 8.309 0 0 0-4.265 7.257 8.314 8.314 0 0 0 8.314 8.315 8.314 8.314 0 0 0 8.314-8.314 8.314 8.314 0 0 0-8.314-8.314 8.41 8.41 0 0 0-1.07.077L69.981 42.815a8.429 8.429 0 0 0 .822-3.621 8.465 8.465 0 0 0-8.465-8.466c-4.326 0-7.888 3.248-8.397 7.438l-17.729 5.076c-1.418-2.93-4.412-4.956-7.885-4.956-.71 0-1.397.093-2.058.253L10.037 1.856C9.735 1.402 9.281.95 8.677.95c-.152 0-.454 0-.605.151-.756.302-1.058 1.21-.756 1.966L23.482 39.75z" fill="#d17634"/></g></svg>