<svg width="auto" height="auto" viewBox="-15 -15 126 122"  xmlns="http://www.w3.org/2000/svg"><title>graph</title><g fill="#d17634"><path d="M5.76 92c-.16 0-.48 0-.64-.16-.8-.32-1.12-1.28-.8-2.08l20.8-47.2c.32-.8 1.12-1.12 1.92-.96l37.6 10.72 22.08-43.2c.48-.8 1.44-1.12 2.08-.64.8.48 1.12 1.44.8 2.24L66.88 55.04c-.32.64-1.12.96-1.92.8L27.52 45.12 7.2 91.04c-.32.48-.8.96-1.44.96z"/><circle cx="26.56" cy="43.2" r="9.28"/><circle cx="62.56" cy="51.52" r="8.96"/><circle cx="85.28" cy="12.64" r="8.8"/><path d="M94.08 92H1.6C.64 92 0 91.36 0 90.4V1.6C0 .64.64 0 1.6 0c.96 0 1.6.64 1.6 1.6v87.2h90.88c.96 0 1.6.64 1.6 1.6 0 .96-.64 1.6-1.6 1.6z"/></g></svg>