<svg width="auto" height="auto" viewBox="-5 -11 116 112" xmlns="http://www.w3.org/2000/svg" xmlns:xlink="http://www.w3.org/1999/xlink"><title>stopwatch</title><defs><path id="a" d="M.376.178h65.136V75H.376z"/></defs><g fill="none" fill-rule="evenodd"><g transform="translate(27 11.512)"><mask id="b" fill="#fff"><use xlink:href="#a"/></mask><path d="M28.102.178C17.797.178 7.845 4.492.796 12.015a1.554 1.554 0 1 0 2.27 2.125C9.623 7.141 18.514 3.286 28.102 3.286c18.914 0 34.302 15.39 34.302 34.303 0 18.914-15.388 34.302-34.302 34.302-9.588 0-18.48-3.855-25.037-10.855a1.555 1.555 0 0 0-2.27 2.125c7.049 7.524 17 11.84 27.307 11.84 20.628 0 37.41-16.784 37.41-37.412C65.512 16.96 48.73.18 28.102.18" fill="#d17634" mask="url(#b)"/></g><path d="M47.801 3.109h14.601a1.555 1.555 0 0 0 0-3.11H47.801a1.555 1.555 0 0 0 0 3.11m47.182 16.435L84.66 9.219a1.554 1.554 0 1 0-2.198 2.199L92.785 21.74a1.552 1.552 0 0 0 2.198 0 1.554 1.554 0 0 0 0-2.197m-84.304 31.25H28.93a1.555 1.555 0 0 0 0-3.109H10.679a1.554 1.554 0 0 0 0 3.109m9.125-9.693h9.126a1.555 1.555 0 0 0 0-3.107h-9.126a1.554 1.554 0 1 0 0 3.108M30.485 58.93c0-.858-.696-1.554-1.555-1.554H1.554a1.553 1.553 0 0 0 0 3.11H28.93c.859 0 1.555-.698 1.555-1.556m25.971 17.315c13.942-.71 25.21-12.135 25.74-26.085.571-15.057-11.11-27.519-25.869-28.209a1.23 1.23 0 0 0-1.292 1.227v25.923l-18.33 18.33a1.231 1.231 0 0 0 .05 1.785 27.097 27.097 0 0 0 19.701 7.03" fill="#d17634"/></g></svg>