<svg width="auto" height="auto" viewBox="-5 -11 126 112" xmlns="http://www.w3.org/2000/svg"><title>tick</title><g fill="#d17634"><path d="M23.959 75.25l11.867 9.852c3.807 3.135 9.404 2.687 12.54-1.12l53.067-73.443c2.015-2.687 1.567-6.717-1.12-8.956-2.687-2.24-6.493-2.016-8.956.447L48.813 46.365c-4.702 4.926-7.165 7.39-12.54 6.942"/><path d="M34.707 83.983L4.478 59.128c-5.15-4.254-6.045-11.867-1.567-17.241 4.254-5.15 11.867-6.046 17.241-1.567l19.48 16.121c7.39 6.494 15.003 10.076 23.288 7.613-3.807 5.374-12.763 17.69-12.763 17.69s-6.046 10.747-15.45 2.239z"/></g></svg>