<svg width="100%" height="100%" viewBox="0 0 110 110" xmlns="http://www.w3.org/2000/svg" xmlns:xlink="http://www.w3.org/1999/xlink"><title>circle</title><title>circle-dashed</title><defs><path id="a" d="M0 0h110.125v107.99H0z"/></defs><g class="currentLayer" style=""><title>Layer 1</title><g fill="#0c77dc" fill-rule="evenodd" id="svg_1" class="" fill-opacity="1"><mask id="b" fill="#fff"><use xlink:href="#a" id="svg_2"/></mask><path d="M80.185 23.136c-7.209-5.572-15.895-8.517-25.123-8.517-.997 0-1.989.034-2.967.104L51.079.139c13.862-.956 27.22 3.063 38.047 11.43l-8.94 11.567zm-58.43 8.517L9.83 23.197C17.758 12.016 29.554 4.238 43.044 1.29l3.12 14.283c-9.923 2.168-18.593 7.878-24.41 16.08zm88.37 22.537h-14.62v-.196c0-10.012-3.864-19.554-10.88-26.87l10.551-10.119c9.64 10.05 14.95 23.186 14.95 36.99v.195zM2.461 69.997a53.02 53.02 0 0 1-2.46-16.003c-.003-8.35 1.892-16.356 5.626-23.803l13.066 6.555c-2.705 5.392-4.075 11.196-4.075 17.246 0 3.959.6 7.86 1.782 11.597L2.461 69.997zM88.943 96.56L80.05 84.956c8.094-6.201 13.412-15.038 14.977-24.883l14.438 2.295c-2.156 13.56-9.444 25.703-20.522 34.192zm-53.91 7.744c-12.946-4.96-23.427-14.447-29.513-26.72l13.096-6.494c4.451 8.972 12.139 15.92 21.647 19.563l-5.23 13.65zm20.029 3.685a56.38 56.38 0 0 1-12.246-1.343l3.178-14.268c9.713 2.165 20.352.683 29.055-4.143l7.091 12.784c-8.221 4.56-17.585 6.97-27.078 6.97z" fill="#0c77dc" mask="url(#b)" id="svg_3"/></g></g></svg>