
<svg width="100%" height="100%" viewBox="0 0 100 100" xmlns="http://www.w3.org/2000/svg" xmlns:xlink="http://www.w3.org/1999/xlink"><title>cogs</title><defs><path id="a" d="M0 .673h62.326V63H0z"/><path id="c" d="M.275.651h44.163v44.162H.275z"/></defs><g fill="none" fill-rule="evenodd"><g transform="translate(0 32.35)"><mask id="b" fill="#fff"><use xlink:href="#a"/></mask><path d="M31.163 43.978c-6.706 0-12.142-5.436-12.142-12.142 0-6.705 5.436-12.14 12.142-12.14 6.706 0 12.142 5.435 12.142 12.14 0 6.706-5.436 12.142-12.142 12.142m29.325-17.33h-5.042A24.638 24.638 0 0 0 52 18.338l3.57-3.569a1.838 1.838 0 0 0 0-2.6l-4.74-4.737a1.838 1.838 0 0 0-2.6 0L44.66 11a24.662 24.662 0 0 0-8.309-3.446V2.512A1.839 1.839 0 0 0 34.514.673h-6.702a1.839 1.839 0 0 0-1.838 1.84v5.041A24.662 24.662 0 0 0 17.665 11l-3.568-3.568a1.838 1.838 0 0 0-2.6 0l-4.74 4.738a1.838 1.838 0 0 0 0 2.6l3.57 3.57a24.638 24.638 0 0 0-3.448 8.307H1.838A1.84 1.84 0 0 0 0 28.487v6.7a1.84 1.84 0 0 0 1.84 1.84h5.04a24.63 24.63 0 0 0 3.447 8.307l-3.569 3.57a1.838 1.838 0 0 0 0 2.6l4.738 4.738a1.841 1.841 0 0 0 2.601 0l3.568-3.569a24.684 24.684 0 0 0 8.31 3.447v5.042c0 1.015.822 1.838 1.837 1.838h6.702a1.838 1.838 0 0 0 1.838-1.838V56.12a24.684 24.684 0 0 0 8.31-3.447l3.567 3.57a1.841 1.841 0 0 0 2.601 0l4.738-4.74a1.838 1.838 0 0 0 0-2.6L52 45.334a24.63 24.63 0 0 0 3.447-8.308h5.042a1.838 1.838 0 0 0 1.838-1.839v-6.7a1.839 1.839 0 0 0-1.838-1.84" fill="#0c77dc" mask="url(#b)"/></g><g transform="translate(51 -.65)"><mask id="d" fill="#fff"><use xlink:href="#c"/></mask><path d="M41.646 28.715l-1.315 3.226a.46.46 0 0 1-.6.252l-3.736-1.524-.628.924a15.583 15.583 0 0 1-4.002 4.057l-.916.638L32.01 40a.46.46 0 0 1-.245.602l-3.21 1.35a.454.454 0 0 1-.352.003.455.455 0 0 1-.25-.247l-1.563-3.713-1.096.21a15.644 15.644 0 0 1-5.7.023l-1.098-.197-1.524 3.738a.459.459 0 0 1-.599.25l-3.225-1.314a.456.456 0 0 1-.252-.599l1.523-3.738-.923-.627a15.618 15.618 0 0 1-4.058-4.002l-.637-.916-3.713 1.562a.46.46 0 0 1-.602-.245l-1.35-3.212a.455.455 0 0 1-.002-.35.451.451 0 0 1 .247-.25l3.713-1.563-.209-1.096a15.573 15.573 0 0 1-.025-5.7l.198-1.099-3.738-1.524a.46.46 0 0 1-.252-.599l1.315-3.224a.456.456 0 0 1 .599-.252l3.737 1.522.628-.922a15.583 15.583 0 0 1 4.002-4.058l.916-.639-1.562-3.711a.455.455 0 0 1 0-.351.452.452 0 0 1 .246-.25l3.21-1.353c.234-.1.504.013.602.247l1.562 3.712 1.096-.21a15.65 15.65 0 0 1 5.701-.024l1.098.197 1.524-3.736a.456.456 0 0 1 .6-.252l3.224 1.315a.46.46 0 0 1 .252.598l-1.524 3.738.923.627a15.626 15.626 0 0 1 4.06 4.002l.636.916 3.712-1.561a.46.46 0 0 1 .603.245l1.35 3.21a.46.46 0 0 1-.245.602l-3.713 1.563.21 1.096a15.6 15.6 0 0 1 .024 5.7l-.197 1.099 3.737 1.523a.46.46 0 0 1 .252.6m.79-3.154l-1.703-.694a18.254 18.254 0 0 0-.018-4.48l1.687-.71a3.221 3.221 0 0 0 1.718-4.214l-1.35-3.21a3.22 3.22 0 0 0-4.214-1.718l-1.687.71A18.31 18.31 0 0 0 33.68 8.1l.693-1.702a3.22 3.22 0 0 0-1.765-4.194L29.382.887a3.22 3.22 0 0 0-4.194 1.766l-.693 1.7a18.262 18.262 0 0 0-4.482.02l-.71-1.688A3.223 3.223 0 0 0 15.09.968l-3.21 1.35a3.201 3.201 0 0 0-1.732 1.751 3.199 3.199 0 0 0 .014 2.463l.71 1.688a18.305 18.305 0 0 0-3.147 3.19l-1.702-.694a3.194 3.194 0 0 0-2.462.014 3.193 3.193 0 0 0-1.73 1.752L.513 15.707a3.199 3.199 0 0 0 .014 2.462A3.201 3.201 0 0 0 2.28 19.9l1.701.692A18.312 18.312 0 0 0 4 25.076l-1.688.709a3.195 3.195 0 0 0-1.732 1.75 3.197 3.197 0 0 0 .014 2.463l1.35 3.21a3.198 3.198 0 0 0 1.751 1.733 3.206 3.206 0 0 0 2.463-.015l1.687-.71a18.317 18.317 0 0 0 3.191 3.148l-.694 1.7a3.201 3.201 0 0 0 .013 2.464 3.2 3.2 0 0 0 1.751 1.73l3.226 1.316a3.206 3.206 0 0 0 2.462-.013 3.201 3.201 0 0 0 1.732-1.752l.693-1.701c1.5.177 2.998.172 4.482-.018l.71 1.686a3.191 3.191 0 0 0 1.75 1.731 3.206 3.206 0 0 0 2.463-.012l3.21-1.351a3.22 3.22 0 0 0 1.718-4.213l-.709-1.688a18.276 18.276 0 0 0 3.146-3.19l1.701.694a3.226 3.226 0 0 0 4.195-1.764l1.315-3.226a3.222 3.222 0 0 0-1.765-4.195" fill="#0c77dc" mask="url(#d)"/></g><path d="M76.071 28.53a7.007 7.007 0 0 1-9.164-3.735 6.955 6.955 0 0 1-.03-5.356 6.95 6.95 0 0 1 3.766-3.807c3.558-1.497 7.668.178 9.164 3.735a7.007 7.007 0 0 1-3.736 9.164m-6.497-15.442a9.693 9.693 0 0 0-5.25 5.309 9.692 9.692 0 0 0 .041 7.466c1.568 3.727 5.195 5.972 9.006 5.972a9.698 9.698 0 0 0 3.77-.763c4.957-2.086 7.294-7.817 5.208-12.775-2.087-4.958-7.819-7.296-12.775-5.21" fill="#0c77dc"/></g></svg>