<svg width="auto" height="auto" viewBox="0 -20 100 100" xmlns="http://www.w3.org/2000/svg" xmlns:xlink="http://www.w3.org/1999/xlink"><title>diagonal-arrows</title><defs><path id="a" d="M.95.762h54.488V55.25H.95z"/><path id="c" d="M0 .43h57.567V58H0z"/></defs><g fill="none" fill-rule="evenodd"><g transform="translate(40 -.762)"><mask id="b" fill="#fff"><use xlink:href="#a"/></mask><path d="M52.458.762H21.906c-2.655 0-3.985 3.21-2.108 5.087l8.955 8.955-26.93 26.93a2.982 2.982 0 0 0 0 4.215l8.429 8.428a2.98 2.98 0 0 0 4.214 0l26.93-26.93 8.955 8.955c1.878 1.877 5.087.548 5.087-2.107V3.742a2.98 2.98 0 0 0-2.98-2.98" fill="#0c77dc" mask="url(#b)"/></g><g transform="translate(0 .238)"><mask id="d" fill="#fff"><use xlink:href="#c"/></mask><path d="M36.404 54.03c-.087.208-.437.888-1.33.888H4.52a1.44 1.44 0 0 1-1.44-1.439V22.926c0-.892.68-1.243.889-1.329.099-.04.312-.114.578-.114.296 0 .658.092.99.425l10.045 10.045 28.019-28.02a1.442 1.442 0 0 1 2.036 0l8.429 8.43a1.442 1.442 0 0 1 0 2.035l-28.02 28.02 10.045 10.044c.63.631.398 1.36.312 1.568zm-6-11.613l25.84-25.84a4.524 4.524 0 0 0 0-6.393l-8.427-8.429A4.492 4.492 0 0 0 44.62.43a4.491 4.491 0 0 0-3.196 1.325l-25.841 25.84-7.866-7.865c-1.316-1.317-3.205-1.694-4.926-.98C1.07 19.463 0 21.063 0 22.926V53.48A4.527 4.527 0 0 0 4.52 58h30.554c1.863 0 3.463-1.07 4.177-2.79.713-1.722.337-3.61-.981-4.927l-7.865-7.866z" fill="#0c77dc" mask="url(#d)"/></g></g></svg>