<svg width="100%" height="100%" viewBox="-20 -5 100 100" xmlns="http://www.w3.org/2000/svg"><title>sign-post</title><path d="M53.74 29.959l1.31 1.302-1.336-1.291-50.021-.038.038-18.136 50.009.011 9.002 9.103-9.002 9.049zm-6.343 23.006H13.643L7.968 47.26l5.676-5.706h33.753v11.411zM65.36 18.252l-9.003-9.05a3.709 3.709 0 0 0-2.643-1.099H34.071V1.846C34.071.826 33.244 0 32.224 0h-5.539c-1.02 0-1.846.827-1.846 1.847v6.255H3.731A3.736 3.736 0 0 0 0 11.834v18.098a3.736 3.736 0 0 0 3.731 3.73h21.108v4.2H13.417c-.831 0-1.646.337-2.232.927l-6.218 6.252a3.155 3.155 0 0 0 0 4.439l6.219 6.252a3.127 3.127 0 0 0 2.231.926h11.422v38.78h9.232v-38.78h13.872a3.152 3.152 0 0 0 3.148-3.147V41.01a3.152 3.152 0 0 0-3.148-3.148H34.071v-4.198h19.643c.998 0 1.937-.39 2.643-1.098l9.003-9.051a3.74 3.74 0 0 0 0-5.262z" fill="#0c77dc" fill-rule="evenodd"/></svg>